<svg width="1597" height="600" viewBox="0 0 1597 600" fill="none" xmlns="http://www.w3.org/2000/svg">
<path d="M311.722 266.427C311.722 251.334 299.893 238.478 279.62 238.478H244.602V295.214H279.62C299.893 295.214 311.722 282.079 311.722 266.427ZM355.084 266.427C355.084 301.641 328.052 328.192 286.377 328.192H244.602V401.136H200.392V205.5H286.377C328.052 205.5 355.084 231.213 355.084 266.427Z" fill="white" style="fill:white;fill-opacity:1;"/>
<path d="M504 329.614C504 354.767 516.949 372.935 539.478 372.935C562.289 372.935 575.242 354.767 575.242 329.614C575.242 305.02 562.289 286.855 539.478 286.855C516.949 286.855 504 305.02 504 329.614ZM614.101 329.614C614.101 374.053 585.097 404.515 539.478 404.515C494.145 404.515 465.138 374.053 465.138 329.614C465.138 285.733 494.145 255.268 539.478 255.268C585.097 255.268 614.101 285.733 614.101 329.614Z" fill="white" style="fill:white;fill-opacity:1;"/>
<path d="M698.817 403.964C656.582 403.964 630.394 372.943 630.394 331.019C630.394 289.093 656.582 258.072 698.817 258.072C735.144 258.072 757.951 279.871 762.739 309.497H739.087C735.144 291.332 722.472 277.641 698.817 277.641C669.816 277.641 652.917 300.275 652.917 331.019C652.917 361.761 669.816 384.398 698.817 384.398C723.881 384.398 737.115 369.309 740.495 349.187H763.584C759.923 380.767 736.834 403.964 698.817 403.964Z" fill="white" style="fill:white;fill-opacity:1;"/>
<path d="M974.365 318.439C973.802 294.967 959.159 277.641 933.538 277.641C909.316 277.641 894.395 293.289 890.173 318.439H974.365ZM865.391 331.858C865.391 288.816 892.986 258.072 933.816 258.072C974.65 258.072 997.736 289.093 997.736 331.019V335.769H889.606V336.887C891.296 365.115 908.192 384.398 932.693 384.398C948.459 384.398 964.225 376.298 970.985 356.173H996.609C988.723 386.075 965.07 403.964 933.253 403.964C891.018 403.964 865.391 373.219 865.391 331.858Z" fill="white" style="fill:white;fill-opacity:1;"/>
<path d="M1111.22 346.951V333.815H1091.79C1050.11 333.815 1037.72 346.112 1037.72 361.761C1037.72 375.735 1048.71 383.842 1066.16 383.842C1090.94 383.842 1111.22 366.234 1111.22 346.951ZM1133.75 309.78V400.889H1111.22V378.81H1110.65C1103.89 389.434 1086.72 402.286 1061.09 402.286C1033.5 402.286 1015.2 386.914 1015.2 362.32C1015.2 335.769 1035.19 315.927 1091.79 315.927H1111.22V309.78C1111.22 289.935 1098.55 277.641 1077.99 277.641C1058.56 277.641 1045.6 288.257 1044.48 305.307H1021.39C1022.24 276.236 1043.92 258.072 1077.99 258.072C1112.34 258.072 1133.75 277.917 1133.75 309.78Z" fill="white" style="fill:white;fill-opacity:1;"/>
<path d="M1363.14 318.439C1362.58 294.967 1347.94 277.641 1322.31 277.641C1298.1 277.641 1283.17 293.289 1278.95 318.439H1363.14ZM1254.17 331.858C1254.17 288.816 1281.76 258.072 1322.59 258.072C1363.42 258.072 1386.52 289.093 1386.52 331.019V335.769H1278.39V336.887C1280.07 365.115 1296.97 384.398 1321.47 384.398C1337.24 384.398 1353.01 376.298 1359.77 356.173H1385.39C1377.51 386.075 1353.85 403.964 1322.03 403.964C1279.79 403.964 1254.17 373.219 1254.17 331.858Z" fill="white" style="fill:white;fill-opacity:1;"/>
<path d="M861.791 260.876C837.16 263.143 818.323 273.385 808.502 295.521V261.456H785.41V401.194H808.502V341.106C808.502 302.762 826.244 285.487 861.791 285.784V260.876Z" fill="white" style="fill:white;fill-opacity:1;"/>
<path d="M459.181 258.072C433.884 260.4 416.85 271.218 408.71 294.708V258.931H369.003V400.909H408.71V347.527C408.71 313.083 421.965 296.658 459.181 297.663V258.072Z" fill="white" style="fill:white;fill-opacity:1;"/>
<path d="M1248.99 280.997V261.435H1197.45V216.716H1174.36V252.601C1174.36 257.514 1170.35 261.496 1165.4 261.496H1157.07C1156.06 261.503 1155.01 261.506 1153.9 261.496H1144.79V280.997H1174.36V355.059C1174.36 384.682 1194.35 403.133 1225.89 403.133C1232.75 403.133 1239.08 402.127 1244.67 400.29V379.947C1237.82 382.275 1231.41 383.008 1225.89 383.008C1207.3 383.008 1197.45 373.227 1197.45 355.059V280.997H1248.99Z" fill="white" style="fill:white;fill-opacity:1;"/>
</svg>
